# xmcd CD database file
#
# Track frame offsets:
#	150
#	25112
#	48324
#	74598
#	92332
#	119934
#	141698
#	150862
#	171038
#
# Disc length: 2592 seconds
#
# Revision: 0
# Processed by: cddbd v1.5PL3 Copyright (c) Steve Scherf et al.
# Submitted via: CDex 1.51
#
DISCID=790a1e09
DTITLE=Blake Gaines - Smooth Bassics
DYEAR=2004
DGENRE=Jazz
TTITLE0=Blake Gaines - Smooth Bassics - 01 - UnDaDaCaVa
TTITLE1=Blake Gaines - Smooth Bassics - 02 - Corner Club
TTITLE2=Blake Gaines - Smooth Bassics - 03 - I'm Still In Love With You ( Alexander Latimore - Vocals)
TTITLE3=Blake Gaines - Smooth Bassics - 04 - Free
TTITLE4=Blake Gaines - Smooth Bassics - 05  - Cool Mood Swing (feat. Kevin Houser - Saxaphone)
TTITLE5=Blake Gaines - Smooth Bassics - 06 - Keelen's Dance
TTITLE6=Blake Gaines - Smooth Bassics - 07 - Morning Call (From Miss Shirley)
TTITLE7=Blake Gaines - Smooth Bassics - 08 - Willow and belmont Place
TTITLE8=Blake Gaines - Smooth Bassics - 09 - The Look
EXTD=YEAR: 2004
EXTT0=
EXTT1=
EXTT2=
EXTT3=
EXTT4=
EXTT5=
EXTT6=
EXTT7=
EXTT8=
PLAYORDER=
